<?xml version="1.0" standalone="no"?><!DOCTYPE svg PUBLIC "-//W3C//DTD SVG 1.1//EN" "http://www.w3.org/Graphics/SVG/1.1/DTD/svg11.dtd"><svg t="1726671745274" class="icon" viewBox="0 0 1024 1024" version="1.1" xmlns="http://www.w3.org/2000/svg" p-id="6085" xmlns:xlink="http://www.w3.org/1999/xlink" width="256" height="256"><path d="M21.503964 1024a21.333298 21.333298 0 0 1-19.285301-30.506616l129.535784-271.999546a478.505869 478.505869 0 0 1-66.218556-243.626261 475.433874 475.433874 0 0 1 140.714432-338.175436A475.519207 475.519207 0 0 1 544.16976 0.001707c90.23985 0 177.535704 24.874625 253.396911 71.893213a476.159206 476.159206 0 0 1 214.015643 297.770171 476.159206 476.159206 0 0 1-59.221235 361.898063 476.031207 476.031207 0 0 1-297.77017 214.015643 477.396538 477.396538 0 0 1-351.828747-53.162578L30.719949 1021.99467A22.570629 22.570629 0 0 1 21.503964 1024zM543.828427 42.668302a433.065945 433.065945 0 0 0-307.370154 127.189122 433.065945 433.065945 0 0 0-128.170453 308.052819 435.369941 435.369941 0 0 0 65.877223 231.082282c3.839994 6.186656 4.309326 13.823977 1.151998 20.437299l-108.629152 228.138287 228.138286-108.629153a21.375964 21.375964 0 0 1 20.4373 1.109332 434.857942 434.857942 0 0 0 329.59945 53.973243 433.620611 433.620611 0 0 0 271.231548-194.943675 433.705944 433.705944 0 0 0 53.930577-329.642117 433.492611 433.492611 0 0 0-194.943675-271.231548A435.75394 435.75394 0 0 0 545.663091 42.668302l-0.895999 0.042667L543.828427 42.668302z" p-id="6086"></path><path d="M373.503377 416.001013m-31.999946 0a31.999947 31.999947 0 1 0 63.999893 0 31.999947 31.999947 0 1 0-63.999893 0Z" p-id="6087"></path><path d="M714.836142 416.001013m-31.999947 0a31.999947 31.999947 0 1 0 63.999894 0 31.999947 31.999947 0 1 0-63.999894 0Z" p-id="6088"></path><path d="M544.16976 682.667236c-70.570549 0-127.999787-57.429238-127.999787-127.999787a21.333298 21.333298 0 0 1 21.333298-21.333298h213.332978a21.333298 21.333298 0 0 1 21.333297 21.333298c0 70.570549-57.429238 127.999787-127.999786 127.999787z m-82.645196-106.666489c9.514651 37.205271 43.178595 63.999893 82.645196 63.999893s73.130545-26.794622 82.645195-63.999893h-165.290391z" p-id="6089"></path></svg>